<?xml version="1.0" encoding="utf-8"?>
<!-- Generator: Adobe Illustrator 18.1.0, SVG Export Plug-In . SVG Version: 6.00 Build 0)  -->
<!DOCTYPE svg PUBLIC "-//W3C//DTD SVG 1.1//EN" "http://www.w3.org/Graphics/SVG/1.1/DTD/svg11.dtd">
<svg version="1.1" id="Layer_1" xmlns="http://www.w3.org/2000/svg" xmlns:xlink="http://www.w3.org/1999/xlink" x="0px" y="0px"
	 viewBox="0 0 110 23" enable-background="new 0 0 110 23" xml:space="preserve">
<g>
	<path fill="#121212" d="M39.9,11.6c0,6.6-3.8,8.2-7.9,8.2c-4.2,0-7.9-1.6-7.9-8.2c0-6.5,3.8-8.2,7.9-8.2S39.9,5,39.9,11.6
		 M43.9,11.6c0-7.1-4.4-11.4-11.9-11.4c-7.5,0-11.9,4.3-11.9,11.4C20.2,18.7,24.5,23,32,23C39.5,23,43.9,18.7,43.9,11.6"/>
	<path fill="#121212" d="M68.6,22.7V3.1c0-2.6-1.9-2.5-3.9-2.5c0,10.1-0.1,22.1-0.1,22.1H68.6z"/>
	<path fill="#121212" d="M90.6,21c-0.6,1.4-1.2,1.8-2.7,1.8h-1.9l9.5-22h5.1l9.5,21.9c0,0-1.7-0.1-1.8-0.1c-1.8,0-2.4-0.3-3-1.7
		L98.1,3.7h-0.4L90.6,21z"/>
	<path fill="#121212" d="M50.6,19.7h9.1c2.6,0,2.4,2.7,2.4,2.7l-11.6,0l-3.9,0v-22c2,0,4,0,4,2.6V19.7z"/>
	<path fill="#121212" d="M18.2,16c0-5-5.5-5.5-9.7-6.6c-2-0.5-4-1.3-4-3.4c0-2.7,3-3.2,5.6-3.2c1.1,0,2.3,0.3,3.5,0.4
		C15.7,3.7,16.3,1,16.3,1c-0.8-0.4-3.5-1-6-1C4.8,0,0.8,1.9,0.8,6.2c0,5.3,5.1,5.8,9.6,7c2,0.5,4,1.2,4,3.3c0,2.4-2.3,3.4-5.4,3.4
		c-2,0-3.4-0.1-5.3-0.9C1.3,18.1,0,21,0,21c2,1.2,5,2,8.1,2C16.3,23,18.2,18.7,18.2,16"/>
	<path fill="#121212" d="M77.7,3.7h-4.4c-2.6,0-2.4-2.9-2.4-2.9l6.7,0l3.8,0h6.7c0,0,0.3,3-2.4,3h-4.4l0,19h-3.8L77.7,3.7z"/>
</g>
</svg>
